# xmcd
#
# Track frame offsets: 
#        183
#        13625
#        44460
#        65308
#        78995
#        101268
#        121225
#        137253
#        152713
#        173998
#
# Disc length: 2612 seconds
#
# Revision: 7
# Processed by: cddbd v1.5.2PL0 Copyright (c) Steve Scherf et al.
# Submitted via: ExactAudioCopy v1.3
#
DISCID=710a320a
DTITLE=Stevie Wonder - Talking Book
DYEAR=1972
DGENRE=Soul
TTITLE0=You Are the Sunshine of My Life
TTITLE1=Maybe Your Baby
TTITLE2=You and I (We Can Conquer the World)
TTITLE3=Tuesday Heartbreak
TTITLE4=You've Got It Bad Girl
TTITLE5=Superstition
TTITLE6=Big Brother
TTITLE7=Blame It on the Sun
TTITLE8=Lookin' for Another Pure Love
TTITLE9=I Believe (When I Fall in Love It Will Be Forever)
EXTD=YEAR: 1972
EXTT0=
EXTT1=
EXTT2=
EXTT3=
EXTT4=
EXTT5=
EXTT6=
EXTT7=
EXTT8=
EXTT9=
PLAYORDER=
